name Walk7.mot
datacolumns 19
datarows 22
range 2.01200000 2.03300000
endheader

                time	   L_ground_force_vx	   L_ground_force_vy	   L_ground_force_vz	   L_ground_force_px	   L_ground_force_py	   L_ground_force_pz	   R_ground_force_vx	   R_ground_force_vy	   R_ground_force_vz	   R_ground_force_px	   R_ground_force_py	   R_ground_force_pz	   L_ground_torque_x	   L_ground_torque_y	   L_ground_torque_z	   R_ground_torque_x	   R_ground_torque_y	   R_ground_torque_z	
          2.01200000	          0.00000000	          0.00000000	          0.00000000	          0.00000000	          0.00000000	          0.00000000	         23.18874679	        685.12805246	         41.62414342	         -0.31928166	          0.00000000	         -0.07995406	          0.00000000	          0.00000000	          0.00000000	          0.00000000	          1.31187392	          0.00000000	
          2.01300000	          0.00000000	          0.00000000	          0.00000000	          0.00000000	          0.00000000	          0.00000000	         23.47952347	        686.16990852	         41.68701904	         -0.31882381	          0.00000000	         -0.08002263	          0.00000000	          0.00000000	          0.00000000	          0.00000000	          1.32989949	          0.00000000	
          2.01400000	          0.00000000	          0.00000000	          0.00000000	          0.00000000	          0.00000000	          0.00000000	         23.76018258	        687.21996274	         41.74294365	         -0.31835678	          0.00000000	         -0.08005746	          0.00000000	          0.00000000	          0.00000000	          0.00000000	          1.34602458	          0.00000000	
          2.01500000	          0.00000000	          0.00000000	          0.00000000	          0.00000000	          0.00000000	          0.00000000	         24.03770647	        688.21638848	         41.79904987	         -0.31789690	          0.00000000	         -0.08007728	          0.00000000	          0.00000000	          0.00000000	          0.00000000	          1.35747396	          0.00000000	
          2.01600000	          0.00000000	          0.00000000	          0.00000000	          0.00000000	          0.00000000	          0.00000000	         24.32077254	        689.14076951	         41.85686193	         -0.31745131	          0.00000000	         -0.08010481	          0.00000000	          0.00000000	          0.00000000	          0.00000000	          1.36757492	          0.00000000	
          2.01700000	          0.00000000	          0.00000000	          0.00000000	          0.00000000	          0.00000000	          0.00000000	         24.61084458	        689.99823948	         41.91303047	         -0.31701968	          0.00000000	         -0.08015016	          0.00000000	          0.00000000	          0.00000000	          0.00000000	          1.38201891	          0.00000000	
          2.01800000	          0.00000000	          0.00000000	          0.00000000	          0.00000000	          0.00000000	          0.00000000	         24.90289655	        690.79082202	         41.96647562	         -0.31660733	          0.00000000	         -0.08021081	          0.00000000	          0.00000000	          0.00000000	          0.00000000	          1.40295431	          0.00000000	
          2.01900000	          0.00000000	          0.00000000	          0.00000000	          0.00000000	          0.00000000	          0.00000000	         25.18456639	        691.51330399	         42.02248054	         -0.31622624	          0.00000000	         -0.08028794	          0.00000000	          0.00000000	          0.00000000	          0.00000000	          1.42824391	          0.00000000	
          2.02000000	          0.00000000	          0.00000000	          0.00000000	          0.00000000	          0.00000000	          0.00000000	         25.44422115	        692.17164838	         42.08907916	         -0.31587869	          0.00000000	         -0.08039168	          0.00000000	          0.00000000	          0.00000000	          0.00000000	          1.45476021	          0.00000000	
          2.02100000	          0.00000000	          0.00000000	          0.00000000	          0.00000000	          0.00000000	          0.00000000	         25.68260216	        692.79971289	         42.17230114	         -0.31554870	          0.00000000	         -0.08052360	          0.00000000	          0.00000000	          0.00000000	          0.00000000	          1.47991365	          0.00000000	
          2.02200000	          0.00000000	          0.00000000	          0.00000000	          0.00000000	          0.00000000	          0.00000000	         25.90912769	        693.43950337	         42.27421019	         -0.31521276	          0.00000000	         -0.08066322	          0.00000000	          0.00000000	          0.00000000	          0.00000000	          1.50009526	          0.00000000	
          2.02300000	          0.00000000	          0.00000000	          0.00000000	          0.00000000	          0.00000000	          0.00000000	         26.13302211	        694.11733460	         42.39329429	         -0.31485237	          0.00000000	         -0.08077768	          0.00000000	          0.00000000	          0.00000000	          0.00000000	          1.51166254	          0.00000000	
          2.02400000	          0.00000000	          0.00000000	          0.00000000	          0.00000000	          0.00000000	          0.00000000	         26.36380660	        694.85329532	         42.52411804	         -0.31445591	          0.00000000	         -0.08084575	          0.00000000	          0.00000000	          0.00000000	          0.00000000	          1.51485456	          0.00000000	
          2.02500000	          0.00000000	          0.00000000	          0.00000000	          0.00000000	          0.00000000	          0.00000000	         26.61086756	        695.67588214	         42.65653449	         -0.31401756	          0.00000000	         -0.08087260	          0.00000000	          0.00000000	          0.00000000	          0.00000000	          1.51486191	          0.00000000	
          2.02600000	          0.00000000	          0.00000000	          0.00000000	          0.00000000	          0.00000000	          0.00000000	         26.87502151	        696.60646664	         42.78041833	         -0.31353876	          0.00000000	         -0.08088055	          0.00000000	          0.00000000	          0.00000000	          0.00000000	          1.51914854	          0.00000000	
          2.02700000	          0.00000000	          0.00000000	          0.00000000	          0.00000000	          0.00000000	          0.00000000	         27.14657887	        697.63085618	         42.89235904	         -0.31303131	          0.00000000	         -0.08088421	          0.00000000	          0.00000000	          0.00000000	          0.00000000	          1.53292700	          0.00000000	
          2.02800000	          0.00000000	          0.00000000	          0.00000000	          0.00000000	          0.00000000	          0.00000000	         27.41628043	        698.69503190	         42.99653896	         -0.31251695	          0.00000000	         -0.08088113	          0.00000000	          0.00000000	          0.00000000	          0.00000000	          1.55594156	          0.00000000	
          2.02900000	          0.00000000	          0.00000000	          0.00000000	          0.00000000	          0.00000000	          0.00000000	         27.68307678	        699.72532789	         43.09942315	         -0.31201801	          0.00000000	         -0.08086902	          0.00000000	          0.00000000	          0.00000000	          0.00000000	          1.58343283	          0.00000000	
          2.03000000	          0.00000000	          0.00000000	          0.00000000	          0.00000000	          0.00000000	          0.00000000	         27.95063039	        700.64855401	         43.20337411	         -0.31154660	          0.00000000	         -0.08085829	          0.00000000	          0.00000000	          0.00000000	          0.00000000	          1.60842603	          0.00000000	
          2.03100000	          0.00000000	          0.00000000	          0.00000000	          0.00000000	          0.00000000	          0.00000000	         28.22346115	        701.40759447	         43.30579069	         -0.31110147	          0.00000000	         -0.08086331	          0.00000000	          0.00000000	          0.00000000	          0.00000000	          1.62362764	          0.00000000	
          2.03200000	          0.00000000	          0.00000000	          0.00000000	          0.00000000	          0.00000000	          0.00000000	         28.50605627	        701.99098708	         43.40208464	         -0.31067393	          0.00000000	         -0.08089169	          0.00000000	          0.00000000	          0.00000000	          0.00000000	          1.62494352	          0.00000000	
          2.03300000	          0.00000000	          0.00000000	          0.00000000	          0.00000000	          0.00000000	          0.00000000	         28.79833225	        702.46128854	         43.48641186	         -0.31025680	          0.00000000	         -0.08094419	          0.00000000	          0.00000000	          0.00000000	          0.00000000	          1.61442344	          0.00000000	
